<svg xmlns="http://www.w3.org/2000/svg" xmlns:xlink="http://www.w3.org/1999/xlink" width="128" zoomAndPan="magnify" viewBox="0 0 96 95.999999" height="128" preserveAspectRatio="xMidYMid meet" version="1.0"><defs><clipPath id="d0a49ce5d7"><path d="M 22.382812 30 L 55 30 L 55 76 L 22.382812 76 Z M 22.382812 30 " clip-rule="nonzero"/></clipPath><clipPath id="ff1ff62721"><path d="M 33 24 L 73.382812 24 L 73.382812 77 L 33 77 Z M 33 24 " clip-rule="nonzero"/></clipPath></defs><rect x="-9.6" width="115.2" fill="#ffffff" y="-9.6" height="115.199999" fill-opacity="1"/><rect x="-9.6" width="115.2" fill="#ffffff" y="-9.6" height="115.199999" fill-opacity="1"/><g clip-path="url(#d0a49ce5d7)"><path fill="#ff0000" d="M 52.375 33.476562 C 51.871094 32.949219 49.078125 29.585938 46.433594 35.234375 C 43.789062 40.878906 38.675781 63.160156 38.675781 63.160156 C 38.675781 63.160156 38.035156 67.765625 33.414062 72.199219 C 28.792969 76.632812 23.644531 75.832031 23.015625 72.375 C 22.382812 68.917969 24.324219 60.457031 26.910156 53.425781 C 28.332031 49.550781 30.847656 43.976562 33.203125 39.277344 L 33.316406 39.351562 C 43.964844 24.25 51.988281 31.917969 54.539062 36.105469 C 53.484375 34.753906 52.632812 33.746094 52.375 33.476562 " fill-opacity="1" fill-rule="nonzero"/></g><g clip-path="url(#ff1ff62721)"><path fill="#000000" d="M 65.511719 41.507812 C 65 40.179688 61.578125 31.957031 58 27.722656 C 57.859375 27.570312 57.71875 27.410156 57.578125 27.238281 C 54.785156 23.878906 51.171875 23.761719 46.996094 24.554688 C 42.820312 25.351562 40.25 28.078125 37.96875 30.910156 C 36.941406 32.183594 35.125 35.4375 33.203125 39.277344 L 33.316406 39.351562 C 50.75 17.160156 57.199219 45.28125 57.199219 45.28125 C 57.664062 46.6875 58.464844 49.199219 58.464844 49.199219 C 58.464844 49.199219 63.546875 68.207031 64.238281 70.765625 C 64.933594 73.328125 66.285156 74.988281 66.285156 74.988281 C 69.695312 78.839844 72.878906 74.433594 73.148438 71.160156 C 73.148438 71.160156 73.617188 68.703125 73.542969 65.792969 C 73.472656 62.878906 67.757812 47.339844 65.511719 41.507812 Z M 54.503906 51.316406 C 55.320312 54.125 53.554688 57.28125 50.5625 58.367188 C 47.566406 59.457031 44.480469 58.0625 43.664062 55.253906 C 42.847656 52.445312 44.613281 49.285156 47.605469 48.199219 C 50.601562 47.113281 53.6875 48.507812 54.503906 51.316406 " fill-opacity="1" fill-rule="nonzero"/></g></svg>